<svg width="20" height="18" viewBox="0 0 20 18" fill="none" xmlns="http://www.w3.org/2000/svg">
<path d="M19.707 16.689L17.684 14.8133C19.1845 13.1967 20.0063 11.1328 19.999 9C19.999 5.20696 17.527 2.08983 14 0.655506V2.50984C16.387 3.79489 17.999 6.26208 17.999 9C17.9946 10.6472 17.4072 12.2475 16.327 13.5552L15.042 12.3638C15.644 11.3513 16 10.1033 16 9C16 7.35799 15.225 5.38405 14 4.36417V11.3977L12 9.54332V1.58267C11.9999 1.41496 11.9508 1.25042 11.8578 1.10656C11.7648 0.962703 11.6315 0.844923 11.472 0.765764C11.3125 0.686604 11.1329 0.649031 10.9522 0.657044C10.7715 0.665058 10.5966 0.718359 10.446 0.81127L5.727 3.72721L1.707 0L0.293 1.31101L18.293 18L19.707 16.689ZM10 3.31462V7.68899L7.169 5.06418L10 3.31462ZM2 13.6358H4.697L10.445 17.1887C10.5958 17.2816 10.7708 17.3349 10.9516 17.3431C11.1324 17.3512 11.3122 17.3139 11.472 17.2351C11.6316 17.1559 11.765 17.0379 11.858 16.8939C11.951 16.7499 12.0001 16.5852 12 16.4173V14.6752L10 12.8208V14.6854L5.555 11.9373C5.53 11.9215 5.499 11.9187 5.473 11.9067C5.35491 11.847 5.22491 11.8104 5.091 11.7991C5.059 11.7963 5.032 11.7815 5 11.7815H2V6.2185H2.879L1.102 4.57093C0.771889 4.72413 0.4941 4.95925 0.299543 5.25013C0.104986 5.54101 0.00129227 5.87623 0 6.2185V11.7815C0 12.8042 0.897 13.6358 2 13.6358Z" fill="white" fill-opacity="0.5"/>
</svg>
