<svg width="20" height="18" viewBox="0 0 20 18" fill="none" xmlns="http://www.w3.org/2000/svg">
<path d="M14 18C17.527 16.453 19.999 13.091 19.999 9C19.999 4.909 17.527 1.547 14 0V2C16.387 3.386 17.999 6.047 17.999 9C17.999 11.953 16.387 14.614 14 16V18Z" fill="white" fill-opacity="0.5"/>
<path d="M14 3.99997V14C15.225 12.9 16 10.771 16 8.99997C16 7.22897 15.225 5.09997 14 3.99997ZM2 14H4.697L10.445 17.832C10.5958 17.9321 10.7708 17.9896 10.9516 17.9984C11.1324 18.0072 11.3122 17.967 11.472 17.882C11.6316 17.7965 11.765 17.6693 11.858 17.514C11.951 17.3587 12.0001 17.181 12 17V0.999972C11.9999 0.819087 11.9508 0.641616 11.8578 0.486458C11.7648 0.3313 11.6315 0.204268 11.472 0.11889C11.3125 0.0335129 11.1329 -0.00701244 10.9522 0.00163075C10.7715 0.0102739 10.5966 0.0677619 10.446 0.167972L4.697 3.99997H2C0.897 3.99997 0 4.89697 0 5.99997V12C0 13.103 0.897 14 2 14ZM2 5.99997H5C5.033 5.99997 5.061 5.98397 5.093 5.98097C5.22601 5.96741 5.35509 5.928 5.473 5.86497C5.499 5.84997 5.53 5.84797 5.555 5.83197L10 2.86797V15.132L5.555 12.168C5.53 12.151 5.499 12.148 5.473 12.135C5.35491 12.0707 5.22491 12.0312 5.091 12.019C5.059 12.016 5.032 12 5 12H2V5.99997Z" fill="white" fill-opacity="0.5"/>
</svg>
